<svg style="position: absolute; width: 0; height: 0; overflow: hidden" version="1.1" xmlns="http://www.w3.org/2000/svg" xmlns:xlink="http://www.w3.org/1999/xlink">
  <defs>
    <symbol id="icon-home" viewBox="0 0 16 16">
      <path d="M16 9.5l-3-3v-4.5h-2v2.5l-3-3-8 8v0.5h2v5h5v-3h2v3h5v-5h2z"></path>
    </symbol>

    <symbol id="icon-book" viewBox="0 0 16 16">
      <path d="M14 2v13h-10.5c-0.829 0-1.5-0.672-1.5-1.5s0.671-1.5 1.5-1.5h9.5v-12h-10c-1.1 0-2 0.9-2 2v12c0 1.1 0.9 2 2 2h12v-14h-1z"></path>
      <path d="M3.501 13v0c-0 0-0.001 0-0.001 0-0.276 0-0.5 0.224-0.5 0.5s0.224 0.5 0.5 0.5c0 0 0.001-0 0.001-0v0h9.498v-1h-9.498z"></path>
    </symbol>

    <symbol id="icon-cog" viewBox="0 0 16 16">
      <path d="M14.59 9.535c-0.839-1.454-0.335-3.317 1.127-4.164l-1.572-2.723c-0.449 0.263-0.972 0.414-1.529 0.414-1.68 0-3.042-1.371-3.042-3.062h-3.145c0.004 0.522-0.126 1.051-0.406 1.535-0.839 1.454-2.706 1.948-4.17 1.106l-1.572 2.723c0.453 0.257 0.845 0.634 1.123 1.117 0.838 1.452 0.336 3.311-1.12 4.16l1.572 2.723c0.448-0.261 0.967-0.41 1.522-0.41 1.675 0 3.033 1.362 3.042 3.046h3.145c-0.001-0.517 0.129-1.040 0.406-1.519 0.838-1.452 2.7-1.947 4.163-1.11l1.572-2.723c-0.45-0.257-0.839-0.633-1.116-1.113zM8 11.24c-1.789 0-3.24-1.45-3.24-3.24s1.45-3.24 3.24-3.24c1.789 0 3.24 1.45 3.24 3.24s-1.45 3.24-3.24 3.24z"></path>
    </symbol>

    <symbol id="icon-chart" viewBox="0 0 16 16">
      <path d="M2 14h14v2h-16v-16h2zM4.5 13c-0.828 0-1.5-0.672-1.5-1.5s0.672-1.5 1.5-1.5c0.044 0 0.088 0.002 0.131 0.006l1.612-2.687c-0.154-0.235-0.243-0.517-0.243-0.819 0-0.828 0.672-1.5 1.5-1.5s1.5 0.672 1.5 1.5c0 0.302-0.090 0.583-0.243 0.819l1.612 2.687c0.043-0.004 0.087-0.006 0.131-0.006 0.033 0 0.066 0.001 0.099 0.004l2.662-4.658c-0.165-0.241-0.261-0.532-0.261-0.845 0-0.828 0.672-1.5 1.5-1.5s1.5 0.672 1.5 1.5c0 0.828-0.672 1.5-1.5 1.5-0.033 0-0.066-0.001-0.099-0.004l-2.662 4.658c0.165 0.241 0.261 0.532 0.261 0.845 0 0.828-0.672 1.5-1.5 1.5s-1.5-0.672-1.5-1.5c0-0.302 0.090-0.583 0.243-0.819l-1.612-2.687c-0.043 0.004-0.087 0.006-0.131 0.006s-0.088-0.002-0.131-0.006l-1.612 2.687c0.154 0.235 0.243 0.517 0.243 0.819 0 0.828-0.672 1.5-1.5 1.5z"></path>
    </symbol>

    <symbol id="icon-refresh" viewBox="0 0 16 16">
      <path d="M16 6h-6l2.243-2.243c-1.133-1.133-2.64-1.757-4.243-1.757s-3.109 0.624-4.243 1.757c-1.133 1.133-1.757 2.64-1.757 4.243s0.624 3.109 1.757 4.243c1.133 1.133 2.64 1.757 4.243 1.757s3.109-0.624 4.243-1.757c0.095-0.095 0.185-0.192 0.273-0.292l1.505 1.317c-1.466 1.674-3.62 2.732-6.020 2.732-4.418 0-8-3.582-8-8s3.582-8 8-8c2.209 0 4.209 0.896 5.656 2.344l2.343-2.344v6z"></path>
    </symbol>
  </defs>
</svg>
